<svg width="56" height="21" viewBox="0 0 56 21" fill="none" xmlns="http://www.w3.org/2000/svg">
<path d="M0.184 21V1.176H12.98V4.256H3.712V9.688H12.448V12.656H3.712V21H0.184ZM12.3229 21L20.9469 1.176H23.9989L32.5389 21H28.5069L26.6589 16.464H18.0629L16.2709 21H12.3229ZM19.2669 13.44H25.4269L22.3749 5.376L19.2669 13.44ZM55.3722 18.144V21H43.4162C40.2056 21 37.6389 20.104 35.7162 18.312C33.8122 16.5013 32.8602 14.0093 32.8602 10.836C32.8602 7.84933 33.8589 5.41333 35.8562 3.528C37.8722 1.624 40.4109 0.672 43.4722 0.672C46.5336 0.672 49.0536 1.624 51.0322 3.528C53.0109 5.41333 54.0002 7.84933 54.0002 10.836C54.0002 12.4787 53.6642 13.9253 52.9922 15.176C52.3202 16.408 51.4802 17.3787 50.4722 18.088V18.144H55.3722ZM43.4722 3.836C41.5496 3.836 39.9442 4.49867 38.6562 5.824C37.3682 7.14933 36.7242 8.82 36.7242 10.836C36.7242 12.9453 37.3402 14.6533 38.5722 15.96C39.8042 17.2667 41.4189 17.92 43.4162 17.92C45.3949 17.92 47.0096 17.2667 48.2602 15.96C49.5296 14.6533 50.1642 12.9453 50.1642 10.836C50.1642 8.80133 49.5389 7.13067 48.2882 5.824C47.0562 4.49867 45.4509 3.836 43.4722 3.836Z" fill="#1A0F0F"/>
</svg>
